<?xml version="1.0" encoding="utf-8"?>
<!-- Generator: Adobe Illustrator 23.0.1, SVG Export Plug-In . SVG Version: 6.00 Build 0)  -->
<svg version="1.1" id="Layer_1" xmlns="http://www.w3.org/2000/svg" xmlns:xlink="http://www.w3.org/1999/xlink" x="0px" y="0px"
	 viewBox="0 0 300 240" style="enable-background:new 0 0 300 240;" xml:space="preserve">
<style type="text/css">
	.st0{fill:#FFFFFF;}
</style>
<g>
	<g>
		<g>
			<path class="st0" d="M224.14,51.14l-25.28-25.28c-3.75-3.75-8.84-5.86-14.14-5.86H70v200h160V65.28
				C230,59.98,227.89,54.89,224.14,51.14z M220,210H80V30h100v40h40V210z M190,60V30l30,30H190z"/>
		</g>
	</g>
	<path class="st0" d="M203.6,108H96.4c-3.52,0-6.4-2.88-6.4-6.4v-3.2c0-3.52,2.88-6.4,6.4-6.4h107.2c3.52,0,6.4,2.88,6.4,6.4v3.2
		C210,105.12,207.12,108,203.6,108z"/>
	<path class="st0" d="M203.6,148H96.4c-3.52,0-6.4-2.88-6.4-6.4v-3.2c0-3.52,2.88-6.4,6.4-6.4h107.2c3.52,0,6.4,2.88,6.4,6.4v3.2
		C210,145.12,207.12,148,203.6,148z"/>
	<path class="st0" d="M203.6,188H96.4c-3.52,0-6.4-2.88-6.4-6.4v-3.2c0-3.52,2.88-6.4,6.4-6.4h107.2c3.52,0,6.4,2.88,6.4,6.4v3.2
		C210,185.12,207.12,188,203.6,188z"/>
	<path class="st0" d="M163.6,68H96.4c-3.52,0-6.4-2.88-6.4-6.4v-3.2c0-3.52,2.88-6.4,6.4-6.4h67.2c3.52,0,6.4,2.88,6.4,6.4v3.2
		C170,65.12,167.12,68,163.6,68z"/>
</g>
</svg>
