<?xml version="1.0" encoding="utf-8"?>
<!-- Generator: Adobe Illustrator 23.0.1, SVG Export Plug-In . SVG Version: 6.00 Build 0)  -->
<svg version="1.1" id="Layer_1" xmlns="http://www.w3.org/2000/svg" xmlns:xlink="http://www.w3.org/1999/xlink" x="0px" y="0px"
	 viewBox="0 0 300 240" style="enable-background:new 0 0 300 240;" xml:space="preserve">
<style type="text/css">
	.st0{fill:#FFFFFF;}
</style>
<g>
	<g>
		<path class="st0" d="M148.53,220c-32.04-1.04-58.44-9.51-78.41-38.11c-1-1.44-1.29-2.77-1.02-4.56
			c1.62-10.82,4.09-27.31,9.13-36.88c5.06-9.59,12.05-16.51,22.07-19.18c2.11-0.56,3.6-0.38,5.34,1.54
			c24.24,26.78,62.84,26.69,87-0.18c1.59-1.77,3.01-1.94,4.94-1.43c8.81,2.29,15.47,7.91,20.48,16.07c6,9.78,8.72,26.87,10.75,38.3
			c0.56,3.18-0.1,5.45-1.88,7.92c-17.66,24.45-40.48,32.51-68.62,35.9C155.24,219.75,152.15,219.78,148.53,220z"/>
		<path class="st0" d="M194.04,73.25c0,29.45-20.07,53.21-44.98,53.25c-24.83,0.04-45.02-23.83-45.02-53.23
			c0-29.39,20.17-53.27,45-53.27C173.89,20,194.04,43.83,194.04,73.25z"/>
	</g>
</g>
</svg>
