<?xml version="1.0" encoding="utf-8"?>
<!-- Generator: Adobe Illustrator 23.0.1, SVG Export Plug-In . SVG Version: 6.00 Build 0)  -->
<svg version="1.1" id="Layer_1" xmlns="http://www.w3.org/2000/svg" xmlns:xlink="http://www.w3.org/1999/xlink" x="0px" y="0px"
	 viewBox="0 0 300 240" style="enable-background:new 0 0 300 240;" xml:space="preserve">
<style type="text/css">
	.st0{fill:#FFFFFF;}
</style>
<g>
	<g>
		<path class="st0" d="M143.1,123.78L25.32,84.52c-1.99-0.66-1.99-3.48,0-4.14L143.1,41.12c4.48-1.49,9.32-1.49,13.8,0l117.79,39.26
			c1.99,0.66,1.99,3.48,0,4.14L156.9,123.78C152.42,125.27,147.58,125.27,143.1,123.78z"/>
		<path class="st0" d="M87.84,118.7l55.35,17.92c4.48,1.49,9.32,1.49,13.8,0l58.55-19.52v32.72c0,0-22.4,21.82-65.45,21.82
			c-42.68,0-62.25-20.22-62.25-20.22V118.7z"/>
		<g>
			<circle class="st0" cx="72.43" cy="163.35" r="13.09"/>
			<polygon class="st0" points="72.43,163.35 59.34,200 84.47,200 			"/>
			<polygon class="st0" points="76.79,174.48 68.06,174.48 68.06,99.14 76.79,100.62 			"/>
		</g>
	</g>
	<path class="st0" d="M76.79,100.62l-8.73-2.31l75.66-18.81c3.7-1.08,5.03,0,5.7,0.65c1,0.98,0.71,3.3-1.01,3.75L76.79,100.62z"/>
</g>
</svg>
