<?xml version="1.0" encoding="utf-8"?>
<!-- Generator: Adobe Illustrator 23.0.1, SVG Export Plug-In . SVG Version: 6.00 Build 0)  -->
<svg version="1.1" id="Layer_1" xmlns="http://www.w3.org/2000/svg" xmlns:xlink="http://www.w3.org/1999/xlink" x="0px" y="0px"
	 viewBox="0 0 300 240" style="enable-background:new 0 0 300 240;" xml:space="preserve">
<style type="text/css">
	.st0{fill:#FFFFFF;}
</style>
<g>
	<g>
		<g>
			<path class="st0" d="M217,45v135h16v40h42V45H217z M256,158h-20v-20h20V158z M256,120h-20v-20h20V120z M256,82h-20V62h20V82z"/>
		</g>
	</g>
	<g>
		<g>
			<path class="st0" d="M25,45v175h42v-40h16V45H25z M64,158H44v-20h20V158z M64,120H44v-20h20V120z M64,82H44V62h20V82z"/>
		</g>
	</g>
	<g>
		<g>
			<path class="st0" d="M95,20v200h40v-43h30v43h40V20H95z M137.5,157.5h-25v-25h25V157.5z M137.5,107.5h-25v-25h25V107.5z
				 M137.5,57.5h-25v-25h25V57.5z M187.5,158h-25v-25h25V158z M187.5,108h-25V83h25V108z M187.5,58h-25V33h25V58z"/>
		</g>
	</g>
</g>
</svg>
