<?xml version="1.0" standalone="no"?>
<!DOCTYPE svg PUBLIC "-//W3C//DTD SVG 20010904//EN"
 "http://www.w3.org/TR/2001/REC-SVG-20010904/DTD/svg10.dtd">
<svg version="1.0" xmlns="http://www.w3.org/2000/svg"
 width="512.000000pt" height="512.000000pt" viewBox="0 0 512.000000 512.000000"
 preserveAspectRatio="xMidYMid meet">
<metadata>
Created by potrace 1.11, written by Peter Selinger 2001-2013
</metadata>
<g transform="translate(0.000000,512.000000) scale(0.100000,-0.100000)"
fill="#000000" stroke="none">
<path d="M727 5113 c-2 -5 -3 -137 -3 -294 l1 -287 -155 0 c-85 -1 -183 -1
-218 -2 l-63 0 3 -152 3 -153 215 0 215 0 0 -740 0 -740 -217 -3 -218 -2 0
-155 0 -154 215 2 c118 1 216 0 216 -3 3 -12 5 -1466 2 -1475 -2 -6 -82 -9
-218 -8 l-215 2 0 -155 0 -154 218 0 217 0 0 -320 0 -320 2047 0 c1944 0 2048
1 2049 18 0 9 1 1160 2 2557 l0 2540 -2046 3 c-1125 1 -2047 -1 -2050 -5z
m1408 -1176 c54 -21 70 -39 200 -217 69 -96 133 -184 141 -195 143 -197 440
-606 452 -625 9 -14 89 -125 176 -245 88 -121 194 -267 235 -325 l76 -104 5
784 c4 573 8 792 17 811 18 41 79 95 122 107 54 17 89 15 138 -7 52 -24 80
-52 104 -104 18 -40 19 -85 19 -1142 0 -704 -4 -1113 -10 -1136 -12 -43 -70
-106 -116 -125 -50 -21 -115 -17 -164 9 -43 22 -75 63 -341 432 -27 39 -194
270 -371 515 -176 245 -370 514 -430 597 -60 84 -112 154 -116 157 -4 2 -7
-352 -7 -787 0 -737 -1 -794 -18 -824 -55 -101 -160 -140 -259 -95 -52 23 -81
54 -104 107 -15 36 -16 136 -16 1137 0 603 3 1114 7 1136 18 107 154 180 260
139z"/>
</g>
</svg>
